PathFileType	4	(X/Y/Z)	C:/Users/beibeiliu/ov580/test_trc/capture2\sequence.36_training_dense_right.trc
DataRate	CameraRate	NumFrames	NumMarkers	Units	OrigDataRate	OrigDataStartFrame	OrigNumFrames
120	120	24	19	mm	120	281	374
Frame#	Time	ThumbCMC			ThumbMCP			ThumbIP			ThumbTip			IndexMCP			IndexPIP			IndexTip			MiddleMCP			MiddlePIP			MiddleTip			RingMCP			RingPIP			RingTip			PinkyMCP			PinkyPIP			PinkyTip			BackHand1			BackHand2			BackHand3	
		X0	Y0	Z0	X1	Y1	Z1	X2	Y2	Z2	X3	Y3	Z3	X4	Y4	Z4	X5	Y5	Z5	X6	Y6	Z6	X7	Y7	Z7	X8	Y8	Z8	X9	Y9	Z9	X10	Y10	Z10	X11	Y11	Z11	X12	Y12	Z12	X13	Y13	Z13	X14	Y14	Z14	X15	Y15	Z15	X16	Y16	Z16	X17	Y17	Z17	X18	Y18	Z18	
280	2.33333	155.089	39.7256	35.1383	135.491	47.0409	10.3853	127.014	51.5325	-19.5867	119.386	47.1491	-41.8962	168.808	13.3285	-33.8092	147.816	21.9395	-58.8792	120.369	35.1666	-54.9217	159.504	-2.17135	-42.5145	135.359	6.8867	-56.0585	111.087	25.9398	-32.628	151.408	-14.6876	-36.9669	129.226	-5.16862	-51.1153	108.387	12.7378	-27.786	141.336	-31.4125	-19.4294	119.203	-19.6567	-40.4664	108.162	7.14734	-24.4378	166.156	-22.7474	17.1876	165.193	-21.6488	48.3904	179.262	7.19259	28.8523	
281	2.34167	156.306	38.4826	33.3452	136.389	47.2053	6.81275	129.231	50.8667	-18.5897	121.404	48.748	-41.6596	169.919	14.6465	-33.2514	150.46	22.8642	-58.2351	121.494	30.8599	-55.3653	161.412	-2.98076	-38.9595	134.938	12.62	-57.0033	111.509	24.0825	-32.6291	150.959	-18.7377	-32.0644	127.114	-4.44191	-50.1905	111.416	15.0339	-26.6601	141.708	-31.0985	-20.1367	122.124	-19.8922	-40.5132	104.477	5.68727	-22.634	165.275	-21.5747	18.5006	165.491	-19.6534	48.3728	180.243	7.73708	30.419	
282	2.35	156.884	39.3317	32.8397	137.56	50.1485	7.82639	130.652	53.8816	-15.61	124.455	48.2343	-39.6735	170.421	18.4784	-37.4527	148.719	20.1061	-57.6523	118.898	30.7571	-52.8353	159.837	-2.88188	-41.826	133.572	10.9809	-55.7294	112.442	25.941	-30.5413	151.069	-16.6547	-37.3008	127.024	-4.93223	-49.2396	111.824	14.3063	-27.7273	142.829	-31.8787	-20.0342	121.379	-18.4259	-41.1255	108.588	6.54788	-25.4352	167.279	-24.8516	19.4731	166.654	-19.0969	51.0313	182.074	7.8806	29.4408	
283	2.35833	156.23	38.2875	33.6306	138.832	47.9379	6.46629	132.455	51.9182	-17.394	127.92	46.7794	-40.5998	171.415	18.7893	-33.8427	145.547	22.8894	-57.5518	117.375	34.6809	-51.5034	161.77	-0.203354	-38.2914	133.933	9.44676	-54.592	111.661	23.7034	-29.8595	150.798	-19.6552	-34.1771	125.458	-5.49989	-48.9314	109.484	11.2766	-26.8704	141.762	-33.8677	-19.5548	120.638	-22.6946	-40.0283	108.772	2.0078	-25.6242	166.504	-22.6301	18.9237	164.987	-22.852	50.2774	181.024	7.64332	31.6	
284	2.36667	156.213	36.952	34.6357	140.489	49.5631	6.8654	135.435	55.1348	-15.0183	129.712	50.7333	-44.1331	170.324	20.1492	-33.6067	146.724	25.1927	-57.4041	116.71	36.5244	-49.1113	161.485	-0.138955	-39.7624	133.474	11.1084	-55.6789	112.264	26.2858	-29.7162	151.961	-18.1968	-36.2507	126.73	-8.58265	-48.8279	110.326	12.9057	-24.8599	143.765	-29.6994	-22.9503	124.004	-17.2203	-40.4722	109.455	1.7901	-25.3297	165.777	-24.3039	18.4017	167.096	-21.2758	51.7491	179.993	4.48014	32.7288	
285	2.375	157.732	36.5623	31.7222	142.537	46.6533	6.68919	137.609	54.9873	-17.0655	132.787	49.1207	-41.9293	169.036	20.2421	-35.4139	143.565	22.8357	-54.9971	116.018	35.6308	-46.463	163.274	1.49118	-38.6654	134.373	11.7324	-55.2534	111.848	22.9636	-30.7713	150.888	-18.2113	-36.7375	128.402	-7.56747	-50.131	108.605	9.72305	-24.3475	143.388	-33.0247	-24.4738	122.849	-18.5277	-40.9487	106.614	1.06979	-26.1497	170.212	-21.0891	19.5181	167.852	-20.3282	46.0681	180.383	8.17487	33.003	
286	2.38333	157.346	36.0008	31.4287	143.533	48.88	5.98693	138.522	56.0145	-18.7472	133.888	51.0017	-43.2156	167.497	17.1341	-35.1527	145.41	23.2122	-54.8176	116.296	34.6823	-45.0355	161.107	-1.73803	-42.3025	134.881	6.34135	-55.9479	113.347	25.2924	-29.7651	152.298	-17.9406	-37.7222	126.577	-4.75514	-49.2109	111.864	10.717	-27.3382	143.831	-34.1104	-21.189	124.202	-21.777	-40.9296	106.944	2.60365	-23.7808	167.826	-23.3889	19.8812	167.056	-20.4883	49.1862	182.3	9.0422	30.9896	
287	2.39167	158.534	39.5291	34.7843	143.748	49.2306	7.444	140.637	56.2037	-17.8346	136.224	48.1261	-42.011	169.053	17.7766	-34.9061	145.822	26.4022	-55.7345	114.317	34.5262	-40.8348	164.052	1.316	-38.4805	136.774	7.88546	-56.625	113.427	25.9584	-28.5695	151.596	-20.6191	-34.687	126.209	-4.80464	-49.0721	109.507	10.9988	-21.8199	143.519	-34.5866	-23.4596	121.625	-20.1644	-40.5321	110.16	0.134965	-27.8437	168.808	-25.7657	19.8441	166.505	-21.8828	46.147	180.362	10.4639	31.0523	
288	2.4	157.988	40.6131	36.7583	146.25	51.2985	6.11901	142.25	54.4797	-20.7471	138.163	49.3292	-45.4386	167.391	16.2044	-35.0592	144.689	21.9134	-54.6213	114.677	33.3999	-38.796	162.083	-0.742303	-41.7826	133.793	7.40141	-54.7989	113.374	24.3852	-31.6117	153.957	-17.1418	-32.4801	127.864	-7.53256	-49.2638	112.917	13.0538	-24.9155	143.854	-34.3937	-23.8732	123.111	-25.694	-40.7494	110.97	3.16708	-23.3163	168.998	-23.1561	22.4392	169.798	-18.4	46.985	178.314	6.29864	33.018	
289	2.40833	159.632	38.6706	35.9646	147.85	51.051	9.62772	144.478	57.8496	-16.7631	140.888	47.1674	-39.738	169.964	19.6266	-34.3128	144.683	22.2239	-53.3366	118.335	34.4162	-42.0709	164.246	2.19826	-38.7457	137.071	6.40954	-55.2754	112.134	21.2739	-30.6155	153.138	-17.3142	-35.7137	126.899	-7.40417	-49.7574	110.365	9.60541	-25.907	144.359	-34.4312	-24.6174	125.911	-20.2448	-40.4299	109.665	-0.720916	-26.3152	165.999	-25.3757	22.4875	166.921	-22.6332	50.6839	182.091	7.33935	32.0221	
290	2.41667	160.468	39.6613	36.7636	148.989	49.5925	7.45113	147.811	53.091	-19.7003	145.239	45.9711	-44.0166	169.696	20.7003	-37.2069	142.828	23.3921	-54.1447	118.369	31.7503	-41.592	163.053	0.6316	-40.967	135.97	9.80417	-55.7942	112.805	23.3362	-29.6263	155.208	-16.0907	-33.5444	128.389	-6.71274	-49.2157	112.164	12.3173	-27.6614	144.358	-35.5643	-19.5821	126.945	-19.0474	-40.4138	107.086	1.22506	-23.4709	167.324	-25.5349	20.6215	167.818	-22.3615	49.2583	181.859	7.20081	31.072	
291	2.425	159.998	36.4192	35.0902	151.584	51.2239	8.11617	150.395	51.1361	-16.6885	148.104	45.7217	-43.983	169.779	18.5193	-34.9639	146.454	22.4805	-53.3308	118.438	35.5045	-39.23	163.913	-1.81569	-37.1347	137.734	8.9079	-55.9047	113.676	23.8366	-33.482	154.238	-16.9909	-36.9347	131.458	-8.31097	-50.4094	113.448	13.078	-28.1088	143.88	-34.4475	-20.4815	123.741	-21.0907	-40.2754	106.592	1.32632	-23.4005	169.318	-24.0774	20.2512	167.273	-19.3059	46.9574	181.425	5.72341	35.2397	
292	2.43333	160.449	37.9953	37.4808	153.231	51.9744	12.2072	153.94	53.7516	-19.9856	151.477	44.6165	-43.7133	171.07	18.3973	-32.9611	147.73	23.1707	-54.3459	120.408	35.4118	-40.0672	163.769	-0.449882	-39.6727	139.797	7.92454	-56.5102	111.763	20.8433	-31.4132	154.083	-19.8865	-35.5117	128.475	-4.95606	-49.1377	111.171	8.68946	-29.4933	146.135	-32.2618	-19.3111	123.31	-19.8047	-40.2954	108.809	3.46758	-24.3544	169.854	-25.3437	17.2342	167.801	-22.7233	51.0576	181.691	6.72254	33.0159	
293	2.44167	162.661	39.1345	34.748	154.543	46.9285	11.2985	155.081	51.6134	-14.965	153.997	46.3076	-42.0414	171.326	17.2114	-33.1119	145.763	24.7412	-54.0013	122.327	35.1496	-40.85	164.707	-1.65472	-38.0648	136.962	12.1247	-56.4641	112.846	24.0954	-34.3531	154.517	-16.6924	-34.4879	127.929	-5.51706	-49.2034	111.973	12.3512	-28.2637	145.853	-29.448	-23.4062	125.647	-18.8311	-39.6912	109.946	1.44703	-25.7602	168.748	-21.2093	20.8738	168.082	-22.1074	52.4652	181.536	9.81953	35.0355	
294	2.45	162.002	38.4192	37.6517	157.181	50.4973	11.2535	157.322	52.7239	-13.2815	156.163	42.854	-40.9573	171.127	16.3648	-33.3395	146.893	26.0065	-55.355	123.151	36.501	-41.5097	164.826	-1.84061	-38.4759	136.028	9.25524	-55.2181	111.894	23.3098	-33.6243	156.889	-15.4645	-32.1627	128.658	-4.84303	-49.4458	112.459	14.5893	-29.0359	144.566	-33.7235	-20.8988	122.526	-21.0833	-40.1472	110.162	4.81216	-27.1365	170.744	-23.5237	19.3363	167.963	-18.3563	52.6234	182.535	6.70807	35.0913	
295	2.45833	162.574	40.2918	40.9714	159.021	48.9003	11.389	161.145	52.231	-15.1504	159.121	41.1584	-40.5059	173.585	18.9258	-32.6182	148.671	25.5545	-55.6817	121.775	37.078	-41.0594	166.485	1.02992	-36.4434	141.443	9.38812	-56.6224	114.026	23.6537	-36.4631	155.685	-16.0591	-34.0698	130.895	-5.97206	-49.3776	110.125	10.9946	-28.831	144.442	-30.2896	-24.9998	123.299	-18.3367	-39.7873	110.744	3.26776	-27.287	168.461	-21.4679	21.1894	167.696	-20.4792	48.9297	182.916	9.31645	32.7281	
296	2.46667	162.804	37.2096	38.5683	158.836	46.764	10.5328	163.644	53.0019	-19.0003	161.318	40.8022	-42.0265	173.923	19.2349	-32.7122	152.553	23.37	-55.2604	122.703	36.6461	-41.2009	165.28	-1.27883	-38.9532	140.993	10.4118	-56.5062	112.931	24.0779	-36.6925	155.84	-14.9235	-36.311	130.673	-1.51847	-49.6064	112.735	12.527	-30.2475	145.105	-30.2922	-25.0126	122.753	-21.4239	-38.9733	106.08	5.7755	-22.6892	167.984	-21.5773	22.1649	165.714	-22.7724	48.8273	183.381	9.14221	34.6293	
297	2.475	162.156	37.8397	39.9687	160.979	49.3835	9.08339	163.517	53.9665	-16.9257	161.833	42.5868	-43.009	173.651	16.7794	-36.1713	154.516	24.8831	-55.117	122.898	39.2644	-40.7759	165.556	-1.16428	-41.2158	139.63	13.8787	-57.7667	113.27	21.5373	-38.0858	156.321	-16.145	-33.9553	131.698	-2.66559	-50.524	110.591	13.209	-27.9703	144.794	-29.9754	-22.0755	122.715	-18.685	-39.8003	108.389	3.53897	-25.112	168.619	-23.8747	21.2974	167.685	-17.5015	49.1718	183.753	8.95462	34.8317	
298	2.48333	163.399	39.6458	40.3406	160.524	48.8033	10.2736	162.387	50.6616	-16.5182	162.962	44.1295	-41.6938	173.893	17.0033	-33.9792	151.326	28.8204	-56.6159	125.625	37.796	-41.7426	166.474	-0.119979	-38.7402	141.165	12.6931	-57.5491	115.378	27.1435	-37.9704	155.29	-14.9076	-35.3645	132.207	-5.41645	-49.4163	112.213	15.5733	-26.3885	143.692	-31.8422	-24.6708	126.473	-17.0084	-40.5638	111.24	5.45808	-25.8489	168.255	-24.4337	18.7571	166.427	-19.4863	52.4359	179.674	5.46785	33.0308	
299	2.49167	162.083	37.3128	39.5811	162.155	50.1097	7.27456	161.947	52.5863	-15.2999	161.391	42.355	-42.8938	174.663	17.6836	-32.7839	154.187	24.6288	-55.3985	124.921	36.3769	-42.2958	165.448	-0.402493	-41.6128	141.46	8.3244	-56.7198	114.85	23.7235	-38.7312	155.731	-15.8347	-36.3033	130.597	-3.62446	-49.3129	112.667	13.8267	-26.9949	144.844	-31.0748	-20.2956	124.946	-15.4227	-40.1717	110.603	6.9566	-21.9763	170.16	-23.4061	22.4664	165.956	-22.9133	49.1074	181.535	8.08727	33.9281	
300	2.5	162.185	35.7742	39.4531	160.46	51.3179	9.60497	164.21	52.996	-19.8226	161.31	42.9042	-39.6366	174.315	16.4257	-35.7244	152.754	24.5712	-55.653	123.858	37.9689	-41.494	166.691	-0.344363	-40.3072	144.363	10.7733	-57.5703	113.875	21.3678	-36.2067	155.836	-18.2169	-34.2756	131.453	-5.85281	-50.5045	114.642	13.4039	-30.3821	144.544	-32.5614	-25.5935	121.359	-16.8716	-40.2429	109.849	4.34186	-24.7641	171.001	-22.6392	18.3051	167.802	-20.6707	48.4723	182.339	7.85307	33.0246	
301	2.50833	164.274	40.5166	39.2645	160.33	48.1751	8.40639	163.242	53.7128	-18.7423	161.114	38.877	-42.8672	174.832	16.7233	-36.1231	151.83	25.122	-55.7835	122.965	35.5441	-40.3841	164.962	-2.66119	-42.5963	140.404	10.1805	-57.5217	113.674	22.3971	-33.7683	154.574	-16.7613	-36.7528	132.59	-5.39419	-50.5376	115.133	15.5884	-27.7108	146.058	-29.5149	-25.4628	124.604	-20.1048	-39.6582	108.455	6.53542	-20.3844	168.721	-23.8007	20.7319	167.485	-21.8597	51.942	180.754	3.61632	29.5227	
302	2.51667	163.048	36.2572	37.2628	159.903	46.7768	9.06324	162.95	50.6551	-18.6603	159.203	39.5002	-39.258	175.127	17.2797	-34.5029	149.617	22.5713	-55.1277	123.022	35.636	-38.6467	165.792	-1.30168	-38.4049	138.676	8.60633	-56.3946	113.405	22.4528	-33.5126	154.029	-19.9862	-37.3237	128.757	-6.75076	-49.0422	112.489	11.6537	-25.7779	145.796	-31.2949	-24.6647	122.319	-19.2024	-39.5758	109.703	3.31809	-20.9539	171.143	-22.1756	18.3635	167.484	-19.7874	52.4027	181.993	4.63893	29.8857	
303	2.525	164.046	38.7883	37.7363	160.851	47.2474	7.01858	163.103	51.8159	-21.1646	159.772	42.6065	-41.955	174.022	14.8138	-34.1813	151.208	25.2611	-56.7603	124.686	34.6778	-42.8004	164.064	-3.12456	-42.1632	138.608	13.0479	-57.2362	115.226	23.7053	-34.8459	155.403	-18.8712	-32.9127	127.763	-7.39259	-49.65	112.713	13.1029	-25.6539	144.134	-33.9053	-26.7998	123.499	-20.2348	-39.4546	111.774	7.53201	-22.33	170.201	-21.4837	16.4445	167.318	-19.6162	48.893	182.071	7.86921	30.938	
